<svg width="20" height="15" viewBox="0 0 20 15" fill="none" xmlns="http://www.w3.org/2000/svg">
<g clip-path="url(#clip0_47_53)">
<path d="M1 0.9375C1.55313 0.9375 2 1.35645 2 1.875V9.375H9V4.6875C9 4.16895 9.44687 3.75 10 3.75H17C18.6562 3.75 20 5.00977 20 6.5625V13.125C20 13.6436 19.5531 14.0625 19 14.0625C18.4469 14.0625 18 13.6436 18 13.125V12.1875H11H10H2V13.125C2 13.6436 1.55313 14.0625 1 14.0625C0.446875 14.0625 0 13.6436 0 13.125V1.875C0 1.35645 0.446875 0.9375 1 0.9375ZM5.5 3.75C6.16304 3.75 6.79893 3.99693 7.26777 4.43647C7.73661 4.87601 8 5.47215 8 6.09375C8 6.71535 7.73661 7.31149 7.26777 7.75103C6.79893 8.19057 6.16304 8.4375 5.5 8.4375C4.83696 8.4375 4.20107 8.19057 3.73223 7.75103C3.26339 7.31149 3 6.71535 3 6.09375C3 5.47215 3.26339 4.87601 3.73223 4.43647C4.20107 3.99693 4.83696 3.75 5.5 3.75Z" fill="#8C8C8C"/>
</g>
<defs>
<clipPath id="clip0_47_53">
<rect width="20" height="15" fill="white"/>
</clipPath>
</defs>
</svg>
