<svg width="15" height="15" viewBox="0 0 15 15" fill="none" xmlns="http://www.w3.org/2000/svg">
<path d="M8.33333 0.937674C8.33333 0.647634 8.21615 0.375174 8.01302 0.199392C7.8099 0.023611 7.54688 -0.0408421 7.29688 0.0294704L2.61198 1.34783C2.05729 1.5031 1.66667 2.0656 1.66667 2.71013V13.1252H0.833333C0.372396 13.1252 0 13.5441 0 14.0627C0 14.5812 0.372396 15.0002 0.833333 15.0002H2.5H7.5H8.33333V14.0627V0.937674ZM6.66667 7.50017C6.66667 8.01873 6.38802 8.43767 6.04167 8.43767C5.69531 8.43767 5.41667 8.01873 5.41667 7.50017C5.41667 6.98162 5.69531 6.56267 6.04167 6.56267C6.38802 6.56267 6.66667 6.98162 6.66667 7.50017ZM9.16667 3.75017H11.6667V14.0627C11.6667 14.5812 12.0391 15.0002 12.5 15.0002H14.1667C14.6276 15.0002 15 14.5812 15 14.0627C15 13.5441 14.6276 13.1252 14.1667 13.1252H13.3333V3.75017C13.3333 2.71599 12.5859 1.87517 11.6667 1.87517H9.16667V3.75017Z" fill="#8C8C8C"/>
</svg>
